<svg width="92.352" height="80" version="1.1" viewBox="0 0 6.7187 5.8201" xmlns="http://www.w3.org/2000/svg">
 <g transform="matrix(.88888 0 0 .88888 1.6469e-5 -1.0762e-5)">
  <path d="m6.7739 3.1814h0.48899l-0.95178 2.0114q0.035576 0.3229 0.035576 0.56445 0 0.67208-0.24923 0.67208-0.18039 0-0.18039-0.28225 0-0.36831 0.26583-0.92324-0.052198-0.34443-0.14716-0.82993-0.09257-0.48553-0.19226-0.69599-0.097316-0.21049-0.28011-0.21049-0.29908 0-0.32043 0.44967h-0.085447q0-0.78924 0.46521-0.78924 0.26822 0 0.39876 0.32052 0.13056 0.3181 0.26822 1.3872z" fill="#d45500" filter="url(#editing-jagged-67)" stroke-width=".01286"/>
  <g transform="matrix(.76924 0 0 .76924 -4.5464e-5 5.3839e-5)">
   <g transform="matrix(1.5,0,0,1.5,-7.7221e-5,-3.0556)" fill="#0026ff" stroke-width=".13437">
    <g transform="matrix(.975 0 0 .975 1.0002e-6 .050936)">
     <path d="m3.3786 5.8292c0.065844-0.5332 0.31551-1.0094 0.68424-1.3639-0.11476 0.0065844-0.23233 0.011556-0.35313 0.014916-0.11691 0.00363-0.23381 0.00551-0.35018 0.00551-0.11677 0-0.23408-0.00189-0.35126-0.00565-0.98645-0.027003-1.7726-0.16635-2.3385-0.36509-0.26606-0.089628-0.49383-0.19525-0.66973-0.31605v1.2631c0.38243 0.39923 1.6654 0.76741 3.3593 0.76741 0.00659 0 0.012766-2.688e-4 0.019216-2.688e-4z"/>
     <path d="m3.0417 4.0629c0.043807 0.00121 0.087479 0.00242 0.13196 0.00309 0.061275 0.00108 0.12322 0.00161 0.18571 0.00161 0.062484 0 0.12443-5.375e-4 0.18584-0.00148 0.044344-6.718e-4 0.08815-0.00201 0.13196-0.00309 0.015587-4.031e-4 0.031443-6.719e-4 0.046897-0.00107 1.5121-0.048243 2.6402-0.39171 2.9947-0.76164v-1.2633c-0.654 0.44922-2.0366 0.68679-3.3593 0.68679s-2.7053-0.23757-3.3593-0.68679v1.2631c0.35448 0.37007 1.4826 0.71353 2.9947 0.76164 0.015587 4.031e-4 0.031443 6.718e-4 0.047032 0.00107z"/>
     <path d="m3.3663 6.2445h-0.00685c-1.659 0-2.8039-0.30772-3.3593-0.69889v1.1021c0 0.021769 0.0057781 0.042328 0.015722 0.060603 0.1587 0.65776 1.5785 1.1488 3.3437 1.1488 0.26875 0 0.52809-0.012631 0.77763-0.034266-0.44384-0.39103-0.73395-0.95043-0.77078-1.5783z"/>
    </g>
   </g>
  </g>
 </g>
</svg>
