<svg width="80.157" height="80" preserveAspectRatio="xMidYMid" version="1.1" viewBox="0 0 25.651 25.6" xmlns="http://www.w3.org/2000/svg">
 <g transform="scale(1)">
  <g transform="translate(-3e-4,-3.0962e-4)" fill="#f0427a" stroke-width=".1002">
   <path d="m12.628 10.56h-3.9558c-0.29228 0.64387-0.93925 1.0925-1.6923 1.0925-1.0268 0-1.8592-0.83234-1.8592-1.8591 0-1.0268 0.83234-1.8592 1.8592-1.8592 0.75309 0 1.4001 0.44858 1.6923 1.0925h3.0706l-1.302-2.2549h-6.9603l-3.4802 6.0279 1.573 2.7245h4.5441c0.12976-0.32524 0.44618-0.5558 0.81771-0.5558 0.48696 0 0.88164 0.39468 0.88164 0.88164s-0.39468 0.88164-0.88164 0.88164c-0.36442 0-0.67704-0.22124-0.8113-0.53666h-4.1632l1.5199 2.6325h6.9603l3.4802-6.0278-1.293-2.2396"/>
   <path d="m25.625 6.0278-3.4802-6.0278h-3.122l-2.2639 3.9226c0.21683 0.27494 0.25831 0.66431 0.07254 0.98615-0.24338 0.42173-0.78254 0.56632-1.2043 0.32284-0.42173-0.24338-0.56622-0.78254-0.32294-1.2043 0.18226-0.31562 0.53015-0.47584 0.87042-0.43446l2.0736-3.5929h-3.0638l-3.4803 6.0278 3.4803 6.0279h2.6685l1.9437-3.4322c-0.41632-0.57163-0.48786-1.3557-0.11673-2.011 0.506-0.89346 1.6405-1.2076 2.5339-0.70158 0.89346 0.506 1.2076 1.6404 0.70158 2.5339-0.37113 0.65529-1.0803 0.99727-1.7845 0.93424l-1.5159 2.6766h2.5298l3.4802-6.0279"/>
   <path d="m24.133 22.2 1.5173-2.628-3.4802-6.0279h-6.9603l-1.2923 2.2384 1.9868 3.4537c0.70389-0.06783 1.4154 0.26933 1.7909 0.92212 0.51201 0.88996 0.20561 2.0266-0.68435 2.5386-0.89006 0.51201-2.0266 0.2056-2.5386-0.68445-0.37554-0.65279-0.30941-1.4373 0.103-2.0117l-1.5439-2.6836-1.3018 2.2547 3.4803 6.0278h6.9603l1.576-2.7298-2.2659-3.9056c-0.34648 0.051-0.70469-0.10701-0.89116-0.42845-0.24428-0.42113-0.101-0.9607 0.32023-1.2051 0.42113-0.24428 0.9607-0.1009 1.205 0.32023 0.18296 0.31522 0.14839 0.69667-0.05701 0.97112l2.0757 3.5778"/>
  </g>
  <g transform="translate(1e-8,-1.596e-4)" fill="#42efb7" stroke="#42efb7" stroke-width=".32417">
   <path d="m21.297 6.2172c-0.72323 0-1.3117 0.58846-1.3117 1.3117 0 0.34157 0.13497 0.64888 0.35049 0.88154l-2.2828 3.9976h-3.0577l-1.7377-2.9623h-5.0405c-0.1515-0.5555-0.65359-0.96681-1.2566-0.96681-0.72323 0-1.3117 0.58846-1.3117 1.3117 0 0.72323 0.58846 1.3116 1.3117 1.3116 0.59217 0 1.0873-0.39638 1.2488-0.93665h4.6181l1.5351 2.619-1.699 2.976 2.4966 4.4046c-0.23817 0.23707-0.38806 0.56221-0.38806 0.92402 0 0.72323 0.58846 1.3117 1.3117 1.3117s1.3117-0.58846 1.3117-1.3117c0-0.72323-0.58846-1.3114-1.3117-1.3114-0.0991 0-0.19438 0.01393-0.28707 0.03517l-2.2916-4.0574 1.5285-2.6154h3.4315l2.501-4.3483c0.10621 0.028757 0.21572 0.048696 0.33095 0.048696 0.72323 0 1.3117-0.58836 1.3117-1.3116s-0.58846-1.3117-1.3117-1.3117zm0 2.4086c-0.1536 0-0.29959-0.032264-0.43235-0.089376l-2.524 4.3893h-3.4302l-1.6532 2.828 2.4404 4.3121c0.12054-0.04559 0.24969-0.07364 0.38596-0.07364 0.60489 0 1.097 0.49207 1.097 1.097 0 0.60499-0.49207 1.0973-1.097 1.0973-0.60499 0-1.097-0.49227-1.097-1.0973 0-0.36191 0.17825-0.68094 0.44949-0.88084l-2.5257-4.4472 1.6999-2.9781-1.66-2.8322-4.9093 4.008e-4c-0.078455 0.52834-0.53075 0.93625-1.0807 0.93625-0.60489 0-1.097-0.49207-1.097-1.0969 0-0.60489 0.49207-1.097 1.097-1.097 0.56051 0 1.0187 0.42384 1.0838 0.96711l5.0902-3.006e-4 1.7376 2.9623h3.3055l2.4278-4.2495c-0.24538-0.2013-0.4054-0.50289-0.4054-0.84437 0-0.60489 0.49197-1.097 1.097-1.097 0.60489 0 1.097 0.49207 1.097 1.097 0 0.60479-0.49207 1.0969-1.097 1.0969z"/>
  </g>
 </g>
</svg>
