<?xml version="1.0" encoding="UTF-8" standalone="no"?>
<svg
   width="92.353"
   height="120"
   fill="#000000"
   version="1.1"
   viewBox="0 0 6.7188 8.7302"
   xml:space="preserve"
   id="svg4"
   sodipodi:docname="logo.svg"
   inkscape:version="1.4.2 (f4327f4, 2025-05-13)"
   xmlns:inkscape="http://www.inkscape.org/namespaces/inkscape"
   xmlns:sodipodi="http://sodipodi.sourceforge.net/DTD/sodipodi-0.dtd"
   xmlns="http://www.w3.org/2000/svg"
   xmlns:svg="http://www.w3.org/2000/svg"><defs
   id="defs4" /><sodipodi:namedview
   id="namedview4"
   pagecolor="#505050"
   bordercolor="#ffffff"
   borderopacity="1"
   inkscape:showpageshadow="0"
   inkscape:pageopacity="0"
   inkscape:pagecheckerboard="1"
   inkscape:deskcolor="#505050"
   inkscape:zoom="6.7916667"
   inkscape:cx="46.159509"
   inkscape:cy="71.779141"
   inkscape:window-width="1920"
   inkscape:window-height="1017"
   inkscape:window-x="-8"
   inkscape:window-y="-8"
   inkscape:window-maximized="1"
   inkscape:current-layer="svg4" />
<g
   id="g4"><path
     d="m5.8707 4.7942h0.42379l-0.82488 1.7432q0.030832 0.27984 0.030832 0.48919 0 0.58247-0.216 0.58247-0.15634 0-0.15634-0.24461 0-0.3192 0.23039-0.80011-0.045238-0.29851-0.12753-0.71924-0.080226-0.42079-0.16662-0.60319-0.084338-0.18242-0.24276-0.18242-0.2592 0-0.2777 0.38971h-0.074055q0-0.684 0.40317-0.684 0.23245 0 0.34559 0.27778 0.11315 0.27568 0.23245 1.2023z"
     fill="#f60"
     filter="url(#editing-jagged-67)"
     stroke-width=".011145"
     id="path1"
     style="fill:#ff7f2a" /><path
     d="M 3.3786,5.8292 C 3.444444,5.296 3.69411,4.8198 4.06284,4.4653 3.94808,4.4718844 3.83051,4.476856 3.70971,4.480216 3.5928,4.483846 3.4759,4.485726 3.35953,4.485726 3.24276,4.485726 3.12545,4.483836 3.00827,4.480076 2.02182,4.453073 1.23567,4.313726 0.66977,4.114986 0.40371,4.025358 0.17594,3.919736 4e-5,3.798936 v 1.2631 c 0.38243,0.39923 1.6654,0.76741 3.3593,0.76741 0.00659,0 0.012766,-2.688e-4 0.019216,-2.688e-4 z"
     id="path2"
     style="fill:#00ed64;stroke-width:0.13437;fill-opacity:1" /><path
     d="m 3.0417,4.0629 c 0.043807,0.00121 0.087479,0.00242 0.13196,0.00309 0.061275,0.00108 0.12322,0.00161 0.18571,0.00161 0.062484,0 0.12443,-5.375e-4 0.18584,-0.00148 0.044344,-6.718e-4 0.08815,-0.00201 0.13196,-0.00309 0.015587,-4.031e-4 0.031443,-6.719e-4 0.046897,-0.00107 1.5121,-0.048243 2.6402,-0.39171 2.9947,-0.76164 v -1.2633 c -0.654,0.44922 -2.0366,0.68679 -3.3593,0.68679 -1.3227,0 -2.7053,-0.23757 -3.3593,-0.68679 v 1.2631 c 0.35448,0.37007 1.4826,0.71353 2.9947,0.76164 0.015587,4.031e-4 0.031443,6.718e-4 0.047032,0.00107 z"
     id="path3"
     style="fill:#00ed64;stroke-width:0.13437;fill-opacity:1" /><path
     d="M 3.3663,6.2445 H 3.35945 c -1.659,0 -2.8039,-0.30772 -3.3593,-0.69889 v 1.1021 c 0,0.021769 0.0057781,0.042328 0.015722,0.060603 0.1587,0.65776 1.5785,1.1488 3.3437,1.1488 0.26875,0 0.52809,-0.012631 0.77763,-0.034266 -0.44384,-0.39103 -0.73395,-0.95043 -0.77078,-1.5783 z"
     id="path4"
     style="fill:#00ed64;stroke-width:0.13437;fill-opacity:1" /></g>
</svg>
